<svg width="650" height="113" viewBox="0 0 650 113" fill="none" xmlns="http://www.w3.org/2000/svg">
    <path d="M33.355 94.25H98.355L65.855 38L33.355 94.25ZM0.917511 113L65.855 0.4375L130.793 113H0.917511ZM153.24 13H171.99V94.25H240.74V113H153.24V13ZM275 13H337.5C358.333 13 368.75 22.8958 368.75 42.6875C368.75 62.4792 358.333 72.375 337.5 72.375H293.75V113H275V13ZM293.75 31.75V53.625H337.5C345.833 53.625 350 49.9792 350 42.6875C350 35.3958 345.833 31.75 337.5 31.75H293.75ZM421.76 72.375V113H403.01V13H421.76V53.625H478.01V13H496.76V113H478.01V72.375H421.76ZM551.645 94.25H616.645L584.145 38L551.645 94.25ZM519.208 113L584.145 0.4375L649.083 113H519.208Z" fill="black"/>
    </svg>
